<svg width="42" height="42" viewBox="0 0 42 42" fill="none" xmlns="http://www.w3.org/2000/svg">
<g clip-path="url(#clip0_467_428)">
<path d="M15.75 1.3125C15.75 0.964403 15.8883 0.630564 16.1344 0.384422C16.3806 0.138281 16.7144 0 17.0625 0L24.9375 0C25.2856 0 25.6194 0.138281 25.8656 0.384422C26.1117 0.630564 26.25 0.964403 26.25 1.3125V7.875H30.1875C31.2318 7.875 32.2333 8.28984 32.9717 9.02827C33.7102 9.76669 34.125 10.7682 34.125 11.8125V35.4375C34.1252 36.2538 33.8717 37.05 33.3995 37.7159C32.9274 38.3819 32.2599 38.8846 31.4895 39.1545C31.5212 39.5082 31.4807 39.8647 31.3706 40.2024C31.2605 40.5401 31.0831 40.8519 30.849 41.119C30.6148 41.386 30.329 41.6028 30.0086 41.7562C29.6883 41.9096 29.3402 41.9964 28.9853 42.0113C28.6305 42.0263 28.2763 41.969 27.9442 41.8431C27.6121 41.7172 27.3091 41.5252 27.0533 41.2787C26.7976 41.0322 26.5946 40.7364 26.4565 40.4092C26.3184 40.082 26.2482 39.7302 26.25 39.375H15.75C15.7476 39.7275 15.6742 40.0758 15.5342 40.3993C15.3942 40.7228 15.1905 41.0148 14.9352 41.2579C14.68 41.501 14.3784 41.6901 14.0484 41.8141C13.7185 41.9381 13.3669 41.9944 13.0147 41.9796C12.6626 41.9647 12.317 41.8792 11.9986 41.7279C11.6802 41.5766 11.3956 41.3628 11.1616 41.0992C10.9277 40.8355 10.7492 40.5275 10.6369 40.1933C10.5246 39.8592 10.4807 39.5059 10.5079 39.1545C9.73796 38.8841 9.07107 38.3812 8.5994 37.7154C8.12774 37.0495 7.8746 36.2535 7.875 35.4375V11.8125C7.875 10.7682 8.28984 9.76669 9.02827 9.02827C9.76669 8.28984 10.7682 7.875 11.8125 7.875H15.75V1.3125ZM23.625 2.625H18.375V7.875H23.625V2.625ZM15.75 14.4375C15.75 14.0894 15.6117 13.7556 15.3656 13.5094C15.1194 13.2633 14.7856 13.125 14.4375 13.125C14.0894 13.125 13.7556 13.2633 13.5094 13.5094C13.2633 13.7556 13.125 14.0894 13.125 14.4375V32.8125C13.125 33.1606 13.2633 33.4944 13.5094 33.7406C13.7556 33.9867 14.0894 34.125 14.4375 34.125C14.7856 34.125 15.1194 33.9867 15.3656 33.7406C15.6117 33.4944 15.75 33.1606 15.75 32.8125V14.4375ZM22.3125 14.4375C22.3125 14.0894 22.1742 13.7556 21.9281 13.5094C21.6819 13.2633 21.3481 13.125 21 13.125C20.6519 13.125 20.3181 13.2633 20.0719 13.5094C19.8258 13.7556 19.6875 14.0894 19.6875 14.4375V32.8125C19.6875 33.1606 19.8258 33.4944 20.0719 33.7406C20.3181 33.9867 20.6519 34.125 21 34.125C21.3481 34.125 21.6819 33.9867 21.9281 33.7406C22.1742 33.4944 22.3125 33.1606 22.3125 32.8125V14.4375ZM28.875 14.4375C28.875 14.0894 28.7367 13.7556 28.4906 13.5094C28.2444 13.2633 27.9106 13.125 27.5625 13.125C27.2144 13.125 26.8806 13.2633 26.6344 13.5094C26.3883 13.7556 26.25 14.0894 26.25 14.4375V32.8125C26.25 33.1606 26.3883 33.4944 26.6344 33.7406C26.8806 33.9867 27.2144 34.125 27.5625 34.125C27.9106 34.125 28.2444 33.9867 28.4906 33.7406C28.7367 33.4944 28.875 33.1606 28.875 32.8125V14.4375Z" fill="#79C9DB"/>
</g>
<defs>
<clipPath id="clip0_467_428">
<rect width="42" height="42" fill="white"/>
</clipPath>
</defs>
</svg>
