<svg width="35" height="35" viewBox="0 0 35 35" fill="none" xmlns="http://www.w3.org/2000/svg">
<path d="M19.9354 32.0834H19.8479C19.5269 32.064 19.2213 31.9391 18.9787 31.7281C18.7361 31.5171 18.5699 31.2319 18.5062 30.9167L16.0416 18.9584L4.08331 16.4938C3.76753 16.4311 3.48139 16.2656 3.26949 16.0233C3.05759 15.7809 2.93185 15.4752 2.91187 15.1539C2.89189 14.8326 2.9788 14.5137 3.15904 14.2469C3.33929 13.9802 3.60273 13.7806 3.90831 13.6792L27.2416 5.90629C27.5036 5.79814 27.7913 5.76864 28.0697 5.82139C28.3481 5.87414 28.6051 6.00686 28.8093 6.20332C29.0135 6.39979 29.1561 6.65148 29.2195 6.92764C29.283 7.20381 29.2646 7.49248 29.1666 7.75837L21.3937 31.0917C21.2923 31.3935 21.0948 31.6539 20.8314 31.833C20.5681 32.012 20.2534 32.1 19.9354 32.0834ZM10.0187 14.7292L17.5875 16.275C17.8704 16.3296 18.1308 16.4668 18.3359 16.6692C18.5409 16.8717 18.6814 17.1303 18.7396 17.4125L20.2708 24.9813L25.4041 9.59587L10.0187 14.7292Z" fill="black"/>
</svg>
