<svg width="35" height="35" viewBox="0 0 35 35" fill="none" xmlns="http://www.w3.org/2000/svg">
<path d="M27.7083 27.7084H7.29167V11.6667H27.7083M23.3333 1.45837V4.37504H11.6667V1.45837H8.75V4.37504H7.29167C5.67292 4.37504 4.375 5.67296 4.375 7.29171V27.7084C4.375 28.4819 4.68229 29.2238 5.22927 29.7708C5.77625 30.3178 6.51812 30.625 7.29167 30.625H27.7083C28.4819 30.625 29.2237 30.3178 29.7707 29.7708C30.3177 29.2238 30.625 28.4819 30.625 27.7084V7.29171C30.625 6.51816 30.3177 5.77629 29.7707 5.22931C29.2237 4.68233 28.4819 4.37504 27.7083 4.37504H26.25V1.45837M24.7917 17.5H17.5V24.7917H24.7917V17.5Z" fill="black"/>
</svg>
