<svg width="55" height="55" viewBox="0 0 55 55" fill="none" xmlns="http://www.w3.org/2000/svg">
<g clip-path="url(#clip0_268_457)">
<path d="M54.9562 49.1133C54.9568 49.8914 54.8042 50.662 54.5069 51.381C54.2095 52.1 53.7734 52.7534 53.2234 53.3038C52.6735 53.8542 52.0204 54.2908 51.3016 54.5886C50.5828 54.8865 49.8123 55.0397 49.0342 55.0396H5.96234C5.18459 55.0391 4.41454 54.8855 3.69617 54.5874C2.9778 54.2893 2.32519 53.8527 1.77559 53.3023C1.22599 52.752 0.790182 52.0988 0.493044 51.3801C0.195906 50.6613 0.0432603 49.8911 0.0438248 49.1133V6.04146C0.0435991 5.26404 0.196513 4.49419 0.493835 3.77588C0.791156 3.05757 1.22706 2.40485 1.77666 1.85502C2.32625 1.30518 2.97878 0.868993 3.69696 0.571359C4.41514 0.273725 5.18492 0.120475 5.96234 0.120362H49.0342C49.812 0.119911 50.5822 0.27275 51.3008 0.570142C52.0194 0.867534 52.6724 1.30365 53.2224 1.85355C53.7724 2.40345 54.2086 3.05636 54.5061 3.77495C54.8036 4.49354 54.9565 5.26372 54.9562 6.04146L54.9536 49.1133" fill="#54AAEA"/>
<path d="M29.5865 28.6258C29.7077 29.2892 29.9414 29.8813 30.0841 29.8659C30.0901 29.8238 30.0901 29.7765 30.0901 29.7292C30.0901 29.7791 30.0901 29.8238 30.0841 29.8659C29.9414 29.8822 29.7068 29.2892 29.5865 28.6258ZM29.3046 28.0878C29.3098 27.8575 29.3596 27.6736 29.5212 27.5963C29.3596 27.671 29.3098 27.8575 29.3046 28.0878ZM21.1999 31.943C21.5995 32.8943 21.7568 33.4916 21.6923 34.3269C21.7568 33.4916 21.6003 32.8934 21.1999 31.943C20.7504 32.0564 19.8292 31.7041 19.6874 32.1286C19.8318 31.7049 20.7513 32.0581 21.1999 31.943ZM32.3537 29.4852C31.9395 30.1263 31.7444 28.9781 31.5966 28.7315C31.7444 28.9799 31.9369 30.1263 32.3554 29.4869C31.8415 28.7685 31.1179 28.0251 31.2211 27.2181H31.2193C31.1171 28.0225 31.8398 28.7667 32.3537 29.4852Z" fill="#54AAEA"/>
<path d="M31.4093 29.2961C31.1291 29.1354 31.0011 28.8217 31.0303 28.3508C31.0303 28.3505 31.0303 28.3511 31.0303 28.3508C31.0011 28.8217 31.1291 29.1371 31.4093 29.2961C31.4368 29.0753 31.3749 28.7624 31.5975 28.7332C31.3749 28.7616 31.4368 29.0744 31.4093 29.2961ZM30.4605 29.1079C30.1065 28.9867 30.0626 29.1827 30.0721 29.4267C30.0644 29.1835 30.1073 28.9885 30.4605 29.1079C30.9624 29.1749 30.6333 30.0713 31.0294 30.2423C31.0294 30.2417 31.0294 30.2411 31.0294 30.2406C30.6333 30.0704 30.9624 29.1741 30.4605 29.1079ZM21.5789 27.5946C21.4259 27.6066 21.3752 27.5146 21.3666 27.3814C21.3752 27.5155 21.4259 27.6066 21.5789 27.5946C22.0189 26.7773 22.3033 25.8002 23.0914 25.3284L23.0922 25.3267C22.3033 25.7976 22.0189 26.7756 21.5789 27.5946ZM26.8726 27.4072C26.6165 27.4639 26.7162 27.8799 26.6853 28.1626C26.2668 28.0088 25.9273 27.7828 25.9273 27.2156C25.9273 27.7802 26.2668 28.0096 26.6853 28.1643C26.7162 27.8807 26.6165 27.4648 26.8726 27.4072C26.8133 29.0778 28.2777 28.5656 29.3305 29.2961C29.3305 29.2964 29.3305 29.2958 29.3305 29.2961C28.2777 28.5656 26.8133 29.077 26.8726 27.4072ZM1.3535 40.4508C0.873106 40.81 1.21771 41.4288 1.0235 41.5147C1.21857 41.4296 0.873965 40.8117 1.3535 40.4508ZM0.598965 41.3961C0.598106 41.3961 0.598106 41.3961 0.598965 41.3961C0.552559 41.5396 0.53623 41.684 0.519043 41.8284H0.519902C0.53709 41.684 0.553418 41.5396 0.598965 41.3961ZM24.7904 24.5704C24.8909 24.7784 25.0645 24.9124 25.2871 24.9984C25.0654 24.9124 24.8918 24.7792 24.7921 24.5713C24.6718 23.6242 25.0413 22.1822 24.6056 21.5489V21.5514C25.0379 22.1865 24.6701 23.6251 24.7904 24.5704ZM24.4131 22.3042L24.4148 22.3034C24.3882 21.835 24.5317 21.1939 24.206 21.0238C24.53 21.1957 24.3856 21.8359 24.4131 22.3042ZM16.2869 24.9477C16.3015 23.9723 15.5409 23.0768 15.4636 22.3128L15.4619 22.3137C15.5409 23.0785 16.3015 23.9749 16.2851 24.9503C16.286 24.9494 16.2869 24.9494 16.2869 24.9477ZM27.439 25.3284C27.5 25.5269 27.6538 25.6335 27.8394 25.7074C27.6538 25.6335 27.5008 25.5278 27.4407 25.3292C27.2087 24.1674 28.1677 22.8783 27.0634 22.4942C28.1643 22.88 27.2069 24.1674 27.439 25.3284ZM14.2097 26.8383C14.2501 25.7899 13.3925 25.6412 13.2644 24.7612L13.2636 24.7621C13.3925 25.6412 14.2493 25.7899 14.2097 26.8383ZM8.85842 35.1717C8.77678 35.4716 8.75787 35.5756 8.79568 35.579C8.75701 35.5747 8.77678 35.469 8.85842 35.1717ZM30.47 27.2646C29.602 26.9277 29.602 25.062 29.7086 24.3839L29.7051 24.3874C29.6029 25.068 29.6029 26.9294 30.47 27.2646ZM10.1372 35.4063C10.6923 35.5575 11.446 35.42 11.7494 34.9714C11.4451 35.4192 10.6915 35.5567 10.1372 35.4063ZM19.3127 24.9477C19.0532 23.6964 18.6029 22.636 18.559 21.1699H18.5573C18.6029 22.636 19.0523 23.6973 19.3127 24.9477ZM21.9553 38.3677C22.4554 37.1663 24.1467 37.1577 25.3576 36.667V36.6653C24.1458 37.156 22.4537 37.1646 21.9553 38.3677ZM11.562 27.977C11.9934 28.1128 12.1283 28.5442 12.3191 28.9206C12.1283 28.5433 11.9934 28.1128 11.562 27.977ZM12.4764 24.5317C12.5503 24.6005 12.6268 24.7646 12.7454 24.8566C12.6268 24.7638 12.5503 24.5996 12.4764 24.5317ZM35.7758 32.8539C36.367 32.4732 36.9531 32.0719 37.5358 31.6568C36.9419 31.8777 36.3455 32.1003 35.7551 32.3228C35.7577 32.5059 35.7655 32.6821 35.7758 32.8539ZM10.9931 33.8336C13.2945 31.6594 16.2516 28.7788 19.1211 28.3499C19.3454 27.8206 19.9306 27.6487 20.2563 27.2182C20.2976 27.4296 20.4677 27.5121 20.6336 27.5954C21.0212 27.4167 20.796 26.6226 21.3915 26.6501C21.3915 26.6495 21.3915 26.649 21.3915 26.6484C20.796 26.6209 21.0212 27.4149 20.6336 27.5937C20.4677 27.5103 20.2976 27.4278 20.2563 27.2164C19.9306 27.647 19.3454 27.8189 19.1211 28.3482C16.2516 28.7779 13.2945 31.6585 10.9931 33.8336C10.5497 33.6978 9.79514 33.3979 9.86131 34.2092C9.86131 34.2097 9.86131 34.2103 9.86131 34.2109C9.79514 33.3988 10.5497 33.6987 10.9931 33.8336ZM36.7597 54.9192V54.921H49.0342L49.0626 54.9192H36.7597ZM2.48959 29.2961C2.46381 29.2523 2.43631 29.2334 2.40967 29.2067C2.40623 29.2609 2.40451 29.3133 2.39678 29.3692C2.42857 29.3434 2.46123 29.3202 2.48959 29.2961ZM11.1658 54.9192V54.921L11.1676 54.9192M12.3191 24.5704C12.3191 24.5713 12.3191 24.5713 12.3191 24.5704ZM21.0727 20.7969C21.1887 20.851 21.291 20.9559 21.3769 20.9937C21.291 20.955 21.1887 20.8502 21.0727 20.7969ZM25.5483 32.1321C25.0499 32.5506 24.9167 33.3928 24.9511 34.2753C24.9167 33.3928 25.0508 32.548 25.5483 32.1338C26.8022 31.3114 28.5562 32.4148 29.6656 32.658C28.5562 32.4139 26.8022 31.3096 25.5483 32.1321ZM19.8515 29.9312C19.8361 29.8057 19.8232 29.6777 19.6857 29.6734C18.7017 30.0696 17.8492 30.7356 17.0818 31.4411C17.8458 30.7381 18.6983 30.0696 19.6857 29.6734C19.8232 29.6777 19.8361 29.8066 19.8515 29.9312ZM21.957 24.5713C21.9192 23.2281 21.8702 21.8866 21.5797 20.7926L21.5789 20.7952C21.8685 21.8874 21.9175 23.2281 21.9553 24.5704L21.957 24.5713ZM20.2554 32.5128C17.8982 33.1762 15.8142 34.1146 14.9626 36.2906H14.9634C15.8151 34.1155 17.899 33.1762 20.2554 32.5128ZM19.3101 34.5899C19.0265 34.5581 18.6175 34.6552 18.5573 34.4008C18.6149 34.6578 19.0265 34.5589 19.3101 34.5899Z" fill="#54AAEA"/>
<path d="M6.7057 44.1117C6.5407 44.2819 7.25656 44.5148 7.40179 44.6119C7.40208 44.6113 7.40236 44.6107 7.40265 44.6102C7.25742 44.5131 6.54671 44.2819 6.7057 44.1117ZM6.83375 44.7992C7.05375 45.4541 7.19812 46.0711 7.16804 46.6177C7.19812 46.0694 7.0546 45.4541 6.83375 44.7992ZM14.9626 52.5508C14.2742 52.3042 15.467 51.3167 14.5862 50.8501C14.5862 50.8518 14.5853 50.8518 14.5844 50.8527C15.467 51.3185 14.2725 52.3067 14.9617 52.5534C15.0648 52.5611 15.1216 52.5216 15.1508 52.4571C15.1207 52.5199 15.064 52.5568 14.9626 52.5508ZM24.0341 53.6852C23.9783 54.0564 23.9138 54.2403 23.8434 54.2919C23.9147 54.2403 23.9791 54.0581 24.0359 53.686L24.0341 53.6852ZM15.1525 51.5969V51.6003C15.834 51.9037 14.9222 52.7115 15.7119 52.7338L15.718 52.7321C14.917 52.7124 15.8383 51.8994 15.1525 51.5969ZM12.5073 52.5508C12.5065 52.5508 12.5065 52.5508 12.5073 52.5508C11.8834 53.1687 11.7528 54.2695 11.1659 54.9227C11.7545 54.2713 11.886 53.1687 12.5073 52.5508ZM6.45648 45.369V45.3656C6.16515 47.6257 5.19578 50.1102 5.1339 51.9767C5.19664 50.111 6.16515 47.6292 6.45648 45.369ZM8.91429 50.0844C8.73039 50.5433 8.05492 51.9415 8.34625 52.7321C8.05234 51.9415 8.73125 50.5433 8.91429 50.0844ZM4.00468 54.4328L4.0021 54.4354C4.26078 54.3349 4.29773 54.493 4.28914 54.6743C4.28484 54.774 4.26851 54.8746 4.26421 54.9502C4.26851 54.8763 4.28398 54.774 4.28914 54.6743C4.29773 54.4921 4.26249 54.3349 4.00468 54.4328ZM10.6176 52.3574C10.9063 51.786 10.7791 53.179 10.8032 53.4927C10.8035 53.4921 10.8038 53.4915 10.8041 53.491C10.78 53.1773 10.908 51.7808 10.6176 52.3574ZM0.218276 46.5008C0.217417 46.5008 0.217417 46.5008 0.218276 46.5008C0.205386 46.8789 0.327417 47.0044 0.510464 47.0199C0.328276 47.0044 0.206245 46.8806 0.218276 46.5008ZM0.0678857 49.4742C0.0597469 49.4757 0.0517102 49.4777 0.0438232 49.4803V49.696C0.0571283 49.6882 0.0709053 49.6813 0.0850732 49.6753C0.363511 49.5301 0.203667 49.4553 0.0678857 49.4742ZM3.62226 45.9336C3.75375 44.9754 2.9296 44.7657 3.62226 44.2329C3.47789 44.0713 3.22093 44.0206 2.92015 44.0155C3.22179 44.0206 3.47875 44.0705 3.62226 44.2329C2.9296 44.7657 3.75289 44.9754 3.62226 45.9336C3.03703 46.8918 1.93273 47.3585 0.936714 47.7933C1.93273 47.3593 3.03703 46.8927 3.62226 45.9336ZM0.519917 41.8267C0.519058 41.8267 0.519058 41.8267 0.519917 41.8267C0.357495 43.2171 1.37929 44.6377 0.786323 45.7403V45.742C1.38531 44.6385 0.358355 43.2163 0.519917 41.8267Z" fill="#1987B2"/>
<path d="M0.409047 45.3638C0.300766 45.8674 0.964204 46.5437 0.409047 46.8746C0.965923 46.5446 0.301626 45.8674 0.409047 45.3638ZM21.01 41.7716C21.5058 40.4336 23.3819 40.4877 24.6039 39.8818L24.603 39.8801C23.381 40.4877 21.505 40.4361 21.01 41.7716ZM5.91334 41.7381C5.63319 41.7527 5.35647 41.7665 5.08491 41.7776C5.35131 42.0922 5.66327 42.3611 6.07749 42.527C6.03624 42.2511 5.97436 41.9959 5.91334 41.7381ZM4.94225 43.0976C4.05194 43.2678 3.11522 43.9286 2.18881 43.8161C3.11522 43.9286 4.05194 43.2712 4.94225 43.0976ZM5.70194 45.5554C5.57561 48.6887 3.47186 50.8767 1.87772 53.2786C1.87772 53.2784 1.87772 53.2789 1.87772 53.2786C3.47272 50.875 5.57647 48.687 5.70194 45.5554ZM4.27709 53.967C4.38709 53.5356 4.4017 52.922 4.61913 52.4777C4.40084 52.922 4.38624 53.5347 4.27709 53.967ZM8.15975 44.9883C8.15889 44.9883 8.15803 44.9883 8.15717 44.9865C8.90827 45.9353 9.0896 47.477 8.47256 48.5332C9.0896 47.4787 8.90913 45.9379 8.15975 44.9883ZM10.8522 51.0812C10.7654 51.309 10.8058 51.6647 10.804 51.9776C10.8075 51.6656 10.7662 51.3098 10.8522 51.0812ZM10.6184 50.8492V50.8509C10.9905 50.8466 10.8565 50.3353 11.3712 50.4719V50.4702C10.8573 50.3336 10.9923 50.8458 10.6184 50.8492ZM2.46725 50.3336C2.54545 50.2227 2.61592 50.1015 2.68639 49.9847C2.61771 50.1049 2.54402 50.2221 2.46553 50.3361L2.46725 50.3336Z" fill="#1987B2"/>
<path d="M1.92152 32.8883C1.73761 32.0289 2.04957 31.8381 1.73074 31.1859C1.15667 31.179 0.769097 31.3586 0.59894 31.7539C0.120269 30.6101 1.63792 29.9561 2.39675 29.3691C2.40449 29.315 2.40621 29.2609 2.40964 29.2076C2.10371 28.9102 1.74964 29.706 1.16355 29.486C1.45917 29.1234 1.77457 28.7813 2.39761 28.7461C2.39074 28.6894 2.38386 28.6301 2.37441 28.5742C2.22023 28.5071 2.06912 28.4331 1.92152 28.3525C1.11027 28.5072 0.542222 28.9077 0.0437842 29.3726C0.0317529 29.3846 0.0197217 29.3923 0.00769043 29.4035V34.5769C0.0197217 34.5623 0.0317529 34.5529 0.0437842 34.5383C0.61269 33.8551 1.26925 33.3472 1.92152 32.8883ZM0.786284 26.6492C0.841284 26.3441 0.609253 26.3235 0.59894 26.0829C0.411065 26.1766 0.225935 26.2758 0.0437842 26.3802C0.0326123 26.3871 0.0188623 26.3931 0.00769043 26.3991V27.6916L0.0437842 27.6452C0.314487 27.3092 0.573159 26.9741 0.786284 26.6492ZM27.1992 37.2625C27.1914 38.1769 27.8686 38.9984 27.0608 39.502C27.4862 39.3929 27.8506 39.9652 28.0027 40.6347C28.7469 39.8647 29.547 39.1514 29.8933 37.9904C29.2754 37.614 28.7512 37.1491 27.9563 36.9531C27.7258 36.8945 27.4893 36.8631 27.2516 36.8594C27.2146 36.9961 27.2 37.1302 27.1992 37.2625Z" fill="#83A8B3"/>
<path d="M5.51465 43.4723V43.8513C5.52238 43.9673 5.54215 44.0764 5.70199 44.0395C5.69854 44.055 5.69854 44.0712 5.70199 44.0867C5.72348 44.1942 5.89793 44.3188 6.07926 45.1747C6.52184 44.5938 6.19355 43.5239 5.51465 43.4723Z" fill="#617E86"/>
<path d="M34.0527 45.1774C34.9293 44.7494 35.7182 44.978 36.5097 44.2286C36.5715 42.5279 35.6787 41.7828 35.7508 40.071C41.0566 40.5092 48.2221 41.0738 53.1403 40.6338C47.4005 39.1317 41.2904 37.9947 35.7543 36.2854C36.025 35.0496 35.8437 34.088 35.7732 32.8479C35.7619 32.6714 35.7556 32.4946 35.7543 32.3177C36.3455 32.0942 36.9394 31.8717 37.5323 31.6534C42.6344 29.7585 47.8268 27.9538 52.5757 25.7048C49.4476 26.1955 45.9774 26.9053 42.4548 27.5903C39.9635 28.0749 37.4447 28.5467 34.9989 28.9171C34.4429 27.0763 33.4426 25.6833 32.5419 24.1906C35.6924 20.381 39.4341 16.2319 42.5605 12.4704C43.2454 11.6446 44.3575 10.4113 44.0739 9.82525C39.5768 14.2132 34.6397 18.1578 29.7069 22.1109C28.2889 21.0908 26.6449 20.4514 24.9133 20.1266C24.8952 11.9067 25.0198 6.09127 24.603 0.00345703C23.4824 6.67221 22.128 13.5017 21.1672 19.898C19.3222 19.9977 17.4805 20.393 15.7833 21.0238C11.2896 15.3149 9.98162 13.2035 3.43404 5.85924C6.10842 11.3446 8.87303 17.8785 12.0794 22.9471C10.4646 24.0831 9.20647 25.4753 8.54131 27.0274C6.29834 25.9574 2.99232 25.9506 0.0472461 25.5871C0.0326146 25.5878 0.0179484 25.5872 0.00341797 25.5853V26.4078C0.00617043 26.4067 0.00877008 26.4052 0.0111523 26.4035L0.0472461 26.3846C0.229764 26.2808 0.414875 26.1816 0.602402 26.0872C0.612715 26.3278 0.844746 26.3485 0.789746 26.6535C0.575762 26.9784 0.317949 27.3135 0.0472461 27.6504L0.0111523 27.6968L0.00341797 27.708V29.4139L0.0111523 29.407C0.0231836 29.3958 0.0352148 29.3872 0.0472461 29.3769C0.545684 28.912 1.11373 28.5089 1.92498 28.356C2.0685 28.4367 2.22232 28.5081 2.37787 28.5777C3.70217 29.1698 5.38998 29.4035 6.65068 30.0567C6.13162 31.5537 6.74436 34.1842 4.00553 33.4624C3.86373 32.7809 3.47271 32.3546 2.49303 32.5162C2.91928 32.0925 2.47928 31.5674 2.30225 31.1902C2.89436 30.4769 2.84193 29.5703 2.49303 28.7375C2.45779 28.7375 2.43373 28.7504 2.40107 28.7521C1.77803 28.7874 1.46264 29.1285 1.16701 29.4912C1.75311 29.7112 2.10717 28.9154 2.41311 29.2136C2.43975 29.2377 2.46725 29.2592 2.49303 29.303C2.46297 29.3284 2.43201 29.3528 2.40021 29.376C1.64139 29.9638 0.12373 30.6161 0.602402 31.7599C0.772559 31.3646 1.16014 31.185 1.7342 31.1919C2.05303 31.8467 1.74107 32.0332 1.92498 32.8935C1.27271 33.3515 0.616152 33.8568 0.0472461 34.54C0.0352148 34.5546 0.0231836 34.5641 0.0111523 34.5787L0.00341797 34.5873V48.2359C0.3095 48.0762 0.622002 47.9291 0.940137 47.795C1.93615 47.3585 3.04045 46.8918 3.62482 45.9336C3.75631 44.9771 2.93217 44.7674 3.62482 44.2329C3.48131 44.0713 3.22436 44.0206 2.92357 44.0155C2.52225 44.0078 2.041 44.0799 1.64053 44.0696C1.54613 44.0674 1.45197 44.0591 1.35865 44.0447C1.79779 44.9565 1.06045 45.7342 1.16787 46.8806C0.939277 46.9417 0.696934 47.0379 0.514746 47.0224C0.332559 47.007 0.210527 46.8841 0.221699 46.5034H0.222559C0.405605 46.5068 0.37209 46.7346 0.41334 46.8798C0.968496 46.5489 0.305059 45.8726 0.41248 45.369H0.417637C0.734746 45.3028 0.76998 45.516 0.790605 45.7454C1.38787 44.6446 0.361777 43.2223 0.52334 41.8318C0.540527 41.6874 0.556855 41.5431 0.602402 41.3996H0.603262C0.837871 41.519 0.96334 41.5482 1.02779 41.5207C1.22201 41.4322 0.877402 40.8169 1.35693 40.4551C1.65256 40.6725 1.63021 41.415 1.43943 41.8464C1.36811 42.008 1.27615 42.1249 1.16615 42.1541C1.79264 42.4574 1.27701 42.7273 1.35693 43.4767C1.63279 43.6881 1.91209 43.7843 2.19225 43.8178C3.11865 43.9304 4.05537 43.2704 4.94568 43.0994C4.99811 46.0703 2.92787 48.1414 0.0472461 48.767L0.0343555 48.7704C0.0395117 48.8529 0.0429492 48.932 0.0395117 49.0059C0.0360742 49.0798 0.0257617 49.146 0.00341797 49.2001V49.494C0.0163086 49.4871 0.0317773 49.4837 0.0472461 49.4803C0.0551331 49.4777 0.0631697 49.4757 0.0713086 49.4742C0.20709 49.4553 0.366934 49.5284 0.0884961 49.6728C0.0753745 49.6808 0.0615718 49.6877 0.0472461 49.6934C0.030918 49.7037 0.0214648 49.7106 0.00341797 49.7183V49.9151C0.0180273 49.9117 0.0326367 49.9031 0.0472461 49.8996C0.0713086 49.8945 0.0953711 49.8833 0.118574 49.879C1.04842 49.6126 1.93271 48.8056 2.86943 48.5805C2.3942 49.5825 1.29162 49.9555 0.204512 50.3431C0.15209 50.3611 0.0988086 50.3809 0.0463867 50.3981L0.00341797 50.4127V50.6456C0.0180273 50.661 0.0326367 50.6662 0.0472461 50.6825C0.15209 50.7779 0.256934 50.8484 0.361777 50.8922C0.563264 50.9764 0.789723 50.9782 0.992559 50.8974C1.08597 50.8614 1.17623 50.8177 1.2624 50.7667L1.30021 50.7401C1.91553 50.356 2.51365 49.5756 3.05592 49.3367L2.85568 49.7011C2.8024 49.7982 2.74482 49.8928 2.68896 49.9881C2.62066 50.1074 2.54755 50.2238 2.46982 50.3371C2.70615 50.0681 4.88553 47.7056 5.57646 45.9405C5.60912 45.8554 5.63232 45.7772 5.65811 45.6964C5.67271 45.65 5.69248 45.6028 5.70451 45.5564C5.57904 48.6896 3.47529 50.8776 1.88029 53.2813C1.601 53.7006 1.33889 54.1303 1.10428 54.5712C1.85967 54.9846 2.96826 54.9897 4.26678 54.9562C4.27107 54.8806 4.2874 54.78 4.2917 54.6803C4.30029 54.499 4.26334 54.34 4.00467 54.4414L4.00725 54.4388H4.00553C4.06405 54.3995 4.11236 54.3468 4.14646 54.285C4.1542 54.2713 4.16709 54.267 4.17396 54.2541C4.21779 54.1742 4.25131 54.0779 4.27881 53.9705C4.38881 53.5382 4.40342 52.9255 4.62084 52.4812C4.72912 52.2578 4.88896 52.0764 5.13646 51.9828C5.19834 50.1145 6.16771 47.6317 6.45904 45.3716V45.375L6.4599 45.3699V48.0167C6.78778 47.7703 7.01938 47.4171 7.11475 47.0181C7.12764 46.964 7.13022 46.9047 7.13881 46.8488C7.15084 46.7741 7.16717 46.701 7.17147 46.6228C7.20154 46.0746 7.05717 45.4592 6.83717 44.8044L6.83803 44.8035C7.07693 44.4357 7.25225 44.8921 7.36225 44.7271C7.38306 44.6927 7.39734 44.6549 7.40436 44.6153C7.25912 44.5182 6.54498 44.2836 6.70826 44.1152C6.74471 44.0815 6.78904 44.0576 6.83717 44.0456C8.79311 44.5672 8.57311 47.575 8.15975 48.9603C8.28178 48.8349 8.38576 48.6913 8.47428 48.5427C9.09131 47.4865 8.90998 45.9474 8.15889 44.996C8.15975 44.996 8.16061 44.996 8.16146 44.9978L8.15975 44.9943C10.0701 45.9809 11.5663 47.3834 11.3755 50.4746L11.3747 50.4763C10.859 50.3405 10.994 50.8518 10.6219 50.8535C10.7276 51.1844 10.3907 51.9596 10.8066 51.9819C10.8083 51.6708 10.7679 51.315 10.8547 51.0856C10.8769 51.0161 10.9212 50.9559 10.9807 50.9138C11.0403 50.8718 11.1119 50.8503 11.1847 50.8527C11.2604 51.3056 10.8384 51.2643 10.994 51.7997C11.4709 52.0498 11.5861 51.0529 11.7519 51.6072L11.7511 51.6089C11.5989 51.7459 11.4723 51.9088 11.3772 52.0902C11.1624 52.501 11.1383 52.9272 10.945 53.2899C10.9058 53.365 10.8588 53.4359 10.8049 53.5013C10.7808 53.1876 10.9089 51.7954 10.6193 52.3678C10.5969 52.8284 10.5325 53.2478 10.4801 53.6783V53.6809C10.4259 54.0942 10.4024 54.511 10.4096 54.9278V54.9296C10.4104 54.9742 10.4062 55.0138 10.4087 55.0576L10.4079 55.0593H11.0481C11.0919 55.0206 11.1272 54.9708 11.1676 54.9296L11.1684 54.9278C11.7554 54.2773 11.886 53.1738 12.509 52.5551L12.5099 52.5534C13.5154 53.0888 14.2596 53.216 15.7128 52.7459C14.923 52.7235 15.8348 51.914 15.1533 51.6124C15.0786 51.8212 15.241 52.2672 15.1516 52.4614C15.1224 52.5267 15.0657 52.5654 14.9626 52.5568C14.2733 52.3102 15.4679 51.321 14.5853 50.8561C14.5862 50.8553 14.587 50.8553 14.587 50.8535C16.9649 47.9712 21.6107 53.0656 22.715 52.1761C23.106 52.2663 23.5357 54.5222 23.8442 54.2988C23.9147 54.2446 23.9791 54.0633 24.035 53.6921L24.0367 53.6938V53.6895C24.6915 54.0367 25.3086 54.4595 25.8079 54.927L25.8096 54.9287C25.856 54.9725 25.9067 55.0138 25.9514 55.0559H25.9479L25.9514 55.0593H36.7606C36.7658 55.0172 36.7606 54.9699 36.764 54.9287V54.927C36.917 52.4236 33.5113 48.3235 34.0562 45.1808M29.8968 37.9956C29.5504 39.1592 28.7504 39.8724 28.0062 40.6399C27.854 39.9704 27.4897 39.3981 27.0643 39.5072C27.8721 39.0019 27.1949 38.1821 27.2026 37.266C27.2035 37.1353 27.219 36.9987 27.2551 36.8629C27.5163 36.8698 27.7458 36.9067 27.9597 36.9583C28.7547 37.1534 29.2789 37.6192 29.8968 37.9956ZM12.3226 28.9231C12.1318 28.5467 11.9969 28.1162 11.5646 27.9796L11.5654 27.977C11.7313 27.5593 12.2487 27.9899 12.3208 28.3826C12.328 28.427 12.3283 28.4722 12.3217 28.5167C12.3208 28.5253 12.3234 28.5347 12.3217 28.5424C12.9413 28.2167 13.2146 27.5447 13.8342 27.2199C13.4157 26.2531 13.0462 25.2373 12.3217 24.5721C12.381 24.4836 12.4291 24.4879 12.479 24.5343C12.5529 24.6022 12.6294 24.7663 12.7479 24.8592C12.8657 24.9511 13.0247 24.9743 13.2662 24.762V24.7638L13.267 24.7629C13.3951 25.6429 14.2527 25.7916 14.2123 26.84C14.8036 26.6166 15.2118 26.2041 15.9104 26.0863C15.2771 25.1256 15.5083 23.3011 14.5346 22.6849C14.8543 22.5646 15.1722 22.4443 15.4644 22.3154L15.4662 22.3146C15.5435 23.0794 16.304 23.9749 16.2894 24.9494C16.5627 24.2774 17.227 24.0006 18.1783 24.0067C18.0219 23.0304 17.6799 22.2389 17.6137 21.1733H18.559L18.5608 21.1742C18.6054 22.6403 19.0549 23.7007 19.3144 24.952C19.8438 24.7268 20.6198 24.744 21.3933 24.7629C20.8914 23.7523 20.9567 22.1762 20.8252 20.7943C20.8639 20.7747 20.9068 20.7647 20.9502 20.7653C20.9937 20.7659 21.0363 20.777 21.0744 20.7978C21.1905 20.851 21.2927 20.9559 21.3787 20.9946C21.4646 21.0332 21.5333 21.0057 21.5797 20.7935L21.5806 20.7969L21.5815 20.7943C21.8719 21.8883 21.9209 23.2298 21.9587 24.573C22.4228 24.866 23.1902 24.8557 23.8468 24.9511C24.2868 24.0041 23.913 22.2441 24.0376 20.9817C24.0968 20.9831 24.1549 20.9978 24.2077 21.0246C24.5334 21.1948 24.389 21.8359 24.4165 22.3042C24.6692 22.2432 24.5747 21.8299 24.6056 21.5497L24.6073 21.5531V21.5506C25.043 22.1839 24.6735 23.626 24.7938 24.573C24.8935 24.781 25.0671 24.9142 25.2888 25.0001C25.6592 25.1428 26.1645 25.1505 26.6853 25.1419C26.4189 24.0617 26.8761 23.5581 27.0626 22.495L27.0643 22.4959C28.1686 22.88 27.2095 24.1691 27.4415 25.331C27.5026 25.5295 27.6555 25.6352 27.8403 25.7091C28.0268 25.7821 28.2451 25.8242 28.435 25.893C28.5572 25.9317 28.6692 25.9975 28.7624 26.0855C29.3219 25.7632 29.2978 24.8566 29.7077 24.3848V24.3891L29.7094 24.3856C29.6054 25.0628 29.6037 26.9285 30.4726 27.2663C30.6711 27.3436 30.9203 27.3393 31.2219 27.2199L31.2237 27.2207C31.1205 28.0268 31.845 28.7719 32.3563 29.4903C31.9412 30.1297 31.7453 28.9833 31.5975 28.7349C31.3749 28.7633 31.4368 29.0761 31.4093 29.2978C31.1291 29.1371 31.0011 28.8235 31.0303 28.3525C30.9727 28.395 30.9256 28.4502 30.8928 28.5139C30.86 28.5775 30.8424 28.6479 30.8412 28.7195C30.8301 29.0598 31.1076 29.4835 31.0844 29.9553C31.0799 30.0536 31.0617 30.1508 31.0303 30.244C30.6341 30.0747 30.9633 29.1784 30.4614 29.1122C30.1099 28.9919 30.0652 29.187 30.0747 29.4302C30.0772 29.5256 30.0893 29.6313 30.0927 29.7301C30.0947 29.7757 30.0927 29.8215 30.0867 29.8667C29.944 29.8822 29.7103 29.2901 29.5891 28.6284C29.5482 28.4073 29.5226 28.1836 29.5126 27.9589C29.5075 27.8394 29.5106 27.7197 29.5221 27.6006C29.3605 27.6762 29.3107 27.8618 29.3029 28.0939C29.2952 28.3989 29.3657 28.7856 29.3571 29.0881C29.3554 29.1663 29.3485 29.2385 29.3339 29.3004C28.2811 28.5699 26.8168 29.0821 26.8761 27.4124C26.62 27.4691 26.7197 27.885 26.6887 28.1669C26.2702 28.0139 25.9308 27.7879 25.9308 27.2207C25.7365 27.4038 25.5501 27.5946 25.3627 27.7871C25.1865 27.6487 25.0757 27.4442 24.9854 27.2207C24.7809 27.2671 24.8574 27.5963 24.6082 27.598C23.888 27.4356 23.5176 26.9225 23.4729 26.0872C23.0269 26.3871 22.8783 26.1749 22.8997 25.8741C22.9066 25.7838 22.9281 25.6859 22.9616 25.5913C22.9642 25.5836 22.9702 25.5776 22.9728 25.5699C23.0054 25.4839 23.045 25.4006 23.0948 25.3318C22.3068 25.8028 22.0223 26.7807 21.5823 27.5989C21.4294 27.6109 21.3787 27.5189 21.3701 27.3849C21.3589 27.207 21.4216 26.9552 21.4156 26.7747C21.4155 26.7338 21.4088 26.6932 21.3958 26.6544C20.8003 26.6269 21.0254 27.421 20.6379 27.5997C20.472 27.5164 20.3019 27.4338 20.2606 27.2224C19.9349 27.653 19.3497 27.8249 19.1254 28.3542C16.2559 28.7831 13.2988 31.6637 10.9974 33.8379C10.554 33.703 9.79943 33.4031 9.86561 34.2143C9.83181 33.9579 9.82576 33.6986 9.84756 33.4409C9.99537 31.6654 11.3901 30.1417 12.3226 28.9231ZM8.85928 35.1751L8.91514 34.9714C9.79084 34.2951 10.2858 35.2533 11.7502 34.9714C11.4469 35.4192 10.6932 35.5592 10.138 35.4088C9.96519 35.3664 9.80549 35.282 9.67311 35.1631C9.17553 35.1974 8.87131 35.5919 8.79568 35.5824C8.75787 35.5781 8.77764 35.4742 8.85928 35.1751ZM3.24412 37.0503C4.23756 36.9394 4.67412 37.3828 5.70193 37.2393C5.85404 38.0231 5.15107 37.9483 4.94396 38.3728C5.21639 39.5476 5.64006 40.5703 5.9142 41.7416C5.97436 41.9994 6.03709 42.2546 6.07834 42.5305C5.66412 42.3646 5.35131 42.0956 5.08576 41.7811C4.08201 40.5952 3.92904 38.5559 3.24412 37.0503ZM6.08006 45.1774C5.89787 44.3197 5.72428 44.1968 5.70279 44.0894C5.69934 44.0738 5.69934 44.0577 5.70279 44.0421C5.54295 44.0791 5.52318 43.9699 5.51545 43.8531V43.4749C6.19436 43.5274 6.52264 44.5973 6.08006 45.1774ZM14.5862 48.2006C13.9591 45.8364 13.4945 43.432 13.1957 41.0042C13.0288 39.6914 12.9256 38.3713 12.8863 37.0485C14.0181 36.4195 14.7417 35.3796 14.7761 33.648C15.2668 33.2535 15.785 32.7147 16.3522 32.1527C16.5885 31.9181 16.8334 31.6792 17.0878 31.4446C17.8518 30.7416 18.7043 30.073 19.6917 29.6768C19.8292 29.6811 19.8421 29.8092 19.8576 29.9346C19.8614 29.9749 19.8683 30.0148 19.8782 30.0541C20.7779 28.7831 22.8207 29.3597 23.8494 27.977C26.5117 28.9704 28.4058 30.7313 30.0876 32.7027C30.0193 32.706 29.9509 32.7034 29.883 32.6949C29.8114 32.6867 29.7403 32.6746 29.6699 32.6588C28.5622 32.4156 26.8065 31.3122 25.5526 32.1346C25.0542 32.5531 24.921 33.3936 24.9554 34.2762C24.964 34.4979 24.9829 34.7213 25.0095 34.9388C25.0886 35.6005 25.2338 36.2296 25.3627 36.6661V36.6678C24.1519 37.1577 22.4606 37.1663 21.9613 38.3685C22.2234 38.5688 22.5775 38.6788 22.9401 38.7802C23.6637 38.977 24.4286 39.1377 24.609 39.8819V39.8836C23.387 40.4895 21.511 40.4388 21.0151 41.7717C21.6519 40.5402 25.1694 40.0331 25.9308 41.5809C24.9201 41.9573 23.1335 41.5568 22.3412 42.1481C23.6362 42.6792 25.8242 42.3208 26.6896 43.2833C26.1044 43.3942 26.4713 44.4495 26.1215 44.7949C21.5514 45.2066 18.4937 47.1238 14.5896 48.1972" fill="#25333A"/>
<path d="M10.407 54.921V54.9193C10.3997 54.5024 10.4233 54.0857 10.4775 53.6723V53.6697C10.5307 53.2392 10.5943 52.8198 10.6167 52.3583C10.9071 51.7808 10.7791 53.1773 10.8032 53.491C10.8582 53.4239 10.9037 53.3543 10.9424 53.2813C11.1357 52.9178 11.1598 52.4915 11.3746 52.0816C11.4606 51.92 11.5775 51.7559 11.7485 51.6012C11.5835 51.0443 11.4683 52.0412 10.9914 51.7911C10.8358 51.2575 11.2578 51.3013 11.1821 50.8458C11.0017 50.8536 10.9037 50.9438 10.8521 51.0804C10.7662 51.309 10.8075 51.6648 10.8049 51.9768C10.3881 51.9536 10.725 51.175 10.6193 50.8475V50.8458C10.9931 50.8424 10.8582 50.3302 11.3729 50.4668C11.5646 47.3774 10.0684 45.9749 8.15801 44.9866L8.15973 44.99C8.9091 45.9388 9.08957 47.4805 8.47168 48.535C8.38316 48.6862 8.27918 48.8272 8.15715 48.9543C8.56621 47.5716 8.79051 44.5638 6.83457 44.0396C6.78672 44.0523 6.74255 44.0762 6.70566 44.1092C6.54668 44.2793 7.25738 44.5105 7.40262 44.6076C7.39469 44.6476 7.38017 44.6859 7.35965 44.7211C7.24965 44.8852 7.07348 44.4297 6.83543 44.7967C7.05543 45.4532 7.19895 46.0686 7.16887 46.6168C7.16457 46.695 7.14824 46.7681 7.13621 46.8429C7.12762 46.8987 7.12504 46.9589 7.11215 47.0122C7.01711 47.4112 6.78545 47.7645 6.4573 48.0107V45.3639L6.45645 45.369C6.16512 47.6292 5.19746 50.1111 5.13473 51.9768C4.88723 52.0704 4.72738 52.2535 4.61824 52.4752C4.40082 52.9221 4.38621 53.5331 4.27621 53.9645C4.25308 54.063 4.21786 54.1582 4.17137 54.2481C4.16449 54.2627 4.1516 54.2661 4.14387 54.279C4.10905 54.3402 4.06088 54.3928 4.00293 54.4329H4.00465C4.26246 54.3349 4.29855 54.4922 4.28996 54.6743C4.2848 54.774 4.26934 54.8746 4.26504 54.9502C4.26246 55 4.26332 55.0379 4.27965 55.049H4.30715C4.33493 55.0394 4.35978 55.0229 4.37934 55.0009C4.3717 55.0162 4.36593 55.0324 4.36215 55.049H10.4036C10.4018 55.0052 10.407 54.9657 10.4053 54.921M9.10246 47.6318C10.2033 48.9182 8.95723 51.1182 8.34449 52.7356C8.05059 51.945 8.72863 50.5468 8.91254 50.0879C8.82918 49.8094 8.6702 50.1643 8.34449 50.0879C8.51035 49.1855 9.28637 48.889 9.10246 47.6318ZM7.02191 48.9543C6.70309 48.8847 6.66527 49.1039 6.64465 49.3333C6.10754 48.8469 7.33043 48.5161 7.39918 48.0107C7.39574 49.6453 5.67184 51.199 5.13129 52.9229C5.22238 51.8135 6.4341 50.1936 7.02191 48.9543ZM25.807 54.921L25.8053 54.9193C25.306 54.4492 24.6889 54.0289 24.0341 53.6818V53.6861C23.9774 54.0573 23.9121 54.2412 23.8416 54.2911C23.5322 54.5171 23.1034 52.2612 22.7124 52.1684C21.6081 53.0579 16.9623 47.9652 14.5844 50.8458C15.4653 51.3125 14.2733 52.299 14.9608 52.5465C15.0622 52.556 15.1189 52.5182 15.1482 52.4554C15.2375 52.2595 15.0751 51.8152 15.1499 51.6064V51.6029C15.8357 51.9072 14.9144 52.7184 15.7145 52.7382L15.7085 52.7399C14.2553 53.21 13.5111 53.0819 12.5056 52.5465L12.5047 52.5482C11.8834 53.1679 11.7528 54.267 11.1641 54.9218L11.1624 54.9236C11.1237 54.9665 11.0885 55.0129 11.0446 55.0507H25.9479C25.905 55.0061 25.8534 54.9648 25.807 54.921ZM10.9931 33.8336C13.2945 31.6594 16.2516 28.7788 19.1211 28.35C19.3454 27.8206 19.9306 27.6487 20.2563 27.2182C20.2975 27.4296 20.4677 27.5121 20.6336 27.5954C21.0211 27.4167 20.796 26.6226 21.3915 26.6501C21.4044 26.6845 21.4096 26.7257 21.4113 26.7722C21.4173 26.9535 21.3546 27.2053 21.3657 27.3823C21.3743 27.5155 21.425 27.6075 21.578 27.5954C22.018 26.7764 22.3025 25.7985 23.0914 25.3275L23.0905 25.3293C23.04 25.4032 22.999 25.4832 22.9685 25.5673C22.9659 25.575 22.9599 25.5811 22.9573 25.5888C22.9238 25.6833 22.9023 25.7813 22.8954 25.8715C22.8748 26.1714 23.0235 26.3829 23.4686 26.0838C23.5133 26.9191 23.8837 27.4322 24.6039 27.5946C24.8531 27.5929 24.7766 27.2637 24.9811 27.2173C25.0714 27.4407 25.1822 27.6453 25.3584 27.7836C25.5457 27.5911 25.7322 27.4004 25.9264 27.2173C25.9264 27.7819 26.2659 28.0105 26.6844 28.1626C26.7154 27.879 26.6157 27.4639 26.8718 27.4089C26.8125 29.0787 28.2768 28.5665 29.3296 29.297C29.345 29.2343 29.3511 29.1638 29.3536 29.0856C29.3631 28.7814 29.2926 28.3964 29.2995 28.0913C29.3064 27.8593 29.3554 27.6745 29.5178 27.5972C29.507 27.7166 29.5042 27.8366 29.5092 27.9564C29.5178 28.1746 29.5444 28.4041 29.5865 28.6241C29.7077 29.2867 29.9406 29.8779 30.0832 29.8625C30.0884 29.8204 30.0901 29.7748 30.0884 29.7267C30.0858 29.6313 30.0738 29.5256 30.0712 29.4268C30.0626 29.1827 30.1056 28.9876 30.4588 29.1079C30.9607 29.1741 30.6315 30.0704 31.0277 30.2397C31.0612 30.1426 31.0784 30.0447 31.0818 29.9527C31.1033 29.4792 30.8275 29.0581 30.8404 28.7169C30.8411 28.6452 30.8584 28.5747 30.8911 28.5108C30.9237 28.447 30.9708 28.3916 31.0286 28.3491C31.0002 28.82 31.1274 29.1337 31.4067 29.2944C31.4342 29.0727 31.3723 28.7599 31.5957 28.7315C31.7436 28.9782 31.9369 30.1263 32.3529 29.4852C31.8372 28.7668 31.1171 28.0251 31.2193 27.219C30.916 27.3385 30.6693 27.3419 30.47 27.2646C29.602 26.9303 29.602 25.068 29.706 24.3874V24.3831C29.2952 24.8557 29.3218 25.7615 28.7598 26.0838C28.6669 25.9951 28.5549 25.929 28.4324 25.8904C28.2399 25.8208 28.0216 25.7796 27.8377 25.7065C27.6521 25.6326 27.4974 25.5269 27.4372 25.3275C27.2052 24.1665 28.1608 22.8783 27.0608 22.4933L27.0591 22.4925C26.8726 23.5555 26.4154 24.0591 26.6818 25.1393C26.1611 25.1479 25.6557 25.1402 25.2854 24.9975C25.0628 24.9116 24.8892 24.7775 24.7886 24.5696C24.6683 23.6243 25.0361 22.1857 24.6039 21.5506L24.6021 21.5472C24.5712 21.8282 24.6666 22.2415 24.4131 22.3017L24.4114 22.3025C24.3839 21.8342 24.5282 21.1931 24.2043 21.0212C24.1515 20.9944 24.0933 20.9797 24.0341 20.9782C23.9095 22.2407 24.2833 24.0007 23.8433 24.9477C23.1868 24.8523 22.4193 24.8618 21.9553 24.5696L21.9536 24.5687C21.9157 23.2264 21.8668 21.8866 21.5771 20.7935L21.5763 20.79C21.5299 21.0023 21.4611 21.0298 21.3752 20.9911C21.2893 20.9525 21.187 20.8476 21.071 20.7943C20.9936 20.7582 20.9094 20.7445 20.8218 20.7909C20.9532 22.1702 20.8879 23.7489 21.3898 24.7595C20.6155 24.7406 19.8395 24.7234 19.311 24.9486C19.0514 23.6973 18.6003 22.636 18.5556 21.1707L17.6103 21.1699C17.6764 22.2355 18.0185 23.027 18.1749 24.0032C17.2244 23.9981 16.5601 24.2739 16.286 24.946L16.2843 24.9486C16.3006 23.9723 15.54 23.0768 15.461 22.312C15.1688 22.4409 14.8517 22.5612 14.532 22.6815C15.5057 23.2986 15.2736 25.1222 15.907 26.0829C15.2083 26.2007 14.7993 26.6132 14.2089 26.8366L14.2071 26.8375C14.2484 25.7882 13.3907 25.6395 13.2618 24.7604V24.7586C13.0212 24.9709 12.8614 24.9477 12.7436 24.8557C12.625 24.7629 12.5486 24.5997 12.4746 24.5309C12.4248 24.4845 12.3767 24.4811 12.3174 24.5687C13.041 25.2339 13.4105 26.2497 13.8299 27.2173C13.2103 27.5422 12.937 28.2142 12.3174 28.5399C12.3191 28.5313 12.3165 28.5218 12.3174 28.5132C12.3235 28.4687 12.3232 28.4236 12.3165 28.3792C12.2443 27.9864 11.727 27.5568 11.5603 27.9736C11.9925 28.1111 12.1275 28.5416 12.3182 28.9197C11.3858 30.1383 9.99106 31.6603 9.84324 33.4375C9.82262 33.6901 9.82606 33.9488 9.86129 34.21C9.79512 33.3988 10.5496 33.6987 10.9931 33.8336Z" fill="#83A8B3"/>
<path d="M26.6835 43.2868C25.8156 42.3243 23.6302 42.6826 22.3351 42.1516C23.1274 41.5603 24.9132 41.9608 25.9247 41.5844C25.1633 40.0341 21.6459 40.5437 21.0091 41.7752C21.5041 40.4388 23.3801 40.493 24.6021 39.8854C24.4217 39.1412 23.6577 38.9805 22.9341 38.7837C22.5714 38.684 22.2174 38.574 21.9553 38.372C22.4537 37.1706 24.1449 37.1603 25.3558 36.6713C25.1934 36.1056 25.0753 35.5281 25.0026 34.944C24.9757 34.7236 24.9576 34.5023 24.9485 34.2805C24.9141 33.3997 25.0473 32.5532 25.5457 32.139C26.7995 31.3166 28.5535 32.4191 29.663 32.6632C29.7369 32.6812 29.8074 32.6916 29.8761 32.6993C29.9483 32.707 30.017 32.7113 30.0806 32.707C28.3988 30.7356 26.5048 28.9748 23.8424 27.9813C22.8138 29.3641 20.771 28.7874 19.8713 30.0584C19.8614 30.0192 19.8545 29.9793 19.8506 29.939C19.8352 29.8135 19.8223 29.6863 19.6848 29.682C18.7008 30.0782 17.8483 30.7434 17.0809 31.4489C16.8265 31.6818 16.5816 31.9241 16.3453 32.157C15.7781 32.7191 15.2599 33.2562 14.7692 33.6506C14.7348 35.3866 14.0112 36.4238 12.8794 37.0512C12.9191 38.3742 13.0224 39.6946 13.1888 41.0077C13.4956 43.4973 13.9966 46.0462 14.5792 48.2041C18.4834 47.1308 21.541 45.2144 26.1103 44.8027C26.4618 44.4564 26.0949 43.4002 26.6801 43.2894M14.9582 36.2958C15.8099 34.1224 17.8938 33.1823 20.2503 32.518C20.1669 32.2851 20.0079 32.1295 19.6831 32.1398L19.6839 32.1381H19.6831C19.8249 31.7136 20.7461 32.0659 21.1956 31.9508C21.596 32.9021 21.7524 33.4994 21.688 34.3355C21.6655 34.6137 21.627 34.8903 21.5728 35.164C20.8544 34.6226 19.818 34.3966 18.5521 34.406C18.6131 34.6604 19.0222 34.5633 19.3058 34.5942C18.9801 35.1244 18.8108 34.7738 18.1706 34.785C16.8858 34.9818 16.6228 37.1001 14.9582 36.2992V36.2958Z" fill="#83A8B3"/>
<path d="M8.79484 35.5782C8.86961 35.5859 9.17469 35.1915 9.67227 35.1571C9.78914 35.2705 9.95242 35.3539 10.1372 35.402C10.6923 35.5524 11.4452 35.4149 11.7494 34.9672C10.285 35.249 9.79 34.2908 8.9143 34.9672L8.85844 35.1691C8.7768 35.469 8.75703 35.5747 8.79484 35.5782ZM0.0309375 48.7653L0.0438281 48.7618C2.92445 48.1362 4.99555 46.0651 4.94312 43.0943C4.05281 43.267 3.11523 43.9253 2.18883 43.8127C1.88421 43.7784 1.59507 43.6603 1.35352 43.4715C1.27359 42.7222 1.78922 42.4515 1.16273 42.149C1.27273 42.1197 1.36555 42.0003 1.43602 41.8413C1.6268 41.4099 1.64914 40.6665 1.35352 40.45V40.4517C0.873984 40.8126 1.21859 41.4305 1.02352 41.5156C0.959062 41.5431 0.833594 41.5139 0.598984 41.3944C0.553438 41.5379 0.537109 41.6823 0.519922 41.8267C0.358359 43.2163 1.38789 44.6386 0.786328 45.742V45.7403C0.765703 45.5108 0.730469 45.2977 0.413359 45.3639H0.409063C0.301641 45.8675 0.965938 46.5447 0.409063 46.8755C0.367813 46.7294 0.401328 46.5017 0.218281 46.4983C0.20625 46.8755 0.328281 47.0018 0.510469 47.0173C0.692656 47.0328 0.935 46.9365 1.16359 46.8755C1.05617 45.7291 1.79352 44.9514 1.35437 44.0396C1.44203 44.055 1.53656 44.0611 1.63625 44.0645C2.03672 44.0757 2.51797 44.0035 2.9193 44.0104C3.22094 44.0155 3.47703 44.0645 3.62141 44.2278C2.92875 44.7606 3.75289 44.9703 3.62141 45.9285C3.03617 46.8867 1.93188 47.3533 0.935859 47.7899C0.617812 47.9242 0.305581 48.0718 0 48.2325L0 49.1967C0.0223438 49.1426 0.0326562 49.0747 0.0360937 49.0008C0.0395312 48.9268 0.0360937 48.8478 0.0309375 48.7653ZM0.201094 50.3336C1.28734 49.9461 2.39078 49.5748 2.86602 48.5728C1.9293 48.7962 1.045 49.6032 0.115156 49.8696C0.0910938 49.8765 0.0670312 49.8876 0.0438281 49.8919C0.0292187 49.8954 0.0146094 49.9022 0 49.9057V50.4058C0.0146094 50.4007 0.0292187 50.3955 0.0438281 50.3886C0.09625 50.3715 0.148672 50.3526 0.201094 50.3336Z" fill="#617E86"/>
<path d="M5.70195 45.5554C5.68992 45.601 5.67015 45.6482 5.65554 45.6946C5.62976 45.7754 5.60656 45.8562 5.5739 45.9387C4.88296 47.7064 2.70359 50.068 2.46726 50.3353C2.46726 50.337 2.4664 50.3378 2.46554 50.3378C2.5446 50.2261 2.61507 50.105 2.6864 49.9864C2.74226 49.891 2.79984 49.7964 2.85312 49.6993L3.0525 49.3358C2.50937 49.573 1.91125 50.3542 1.29679 50.7383L1.25898 50.765C1.17336 50.8169 1.08301 50.8607 0.989136 50.8956C0.7863 50.9765 0.559841 50.9746 0.358354 50.8904C0.242336 50.8389 0.135963 50.768 0.0438232 50.6807V52.2706C0.0438232 53.5261 0.436558 54.205 1.10085 54.5694C1.33546 54.1285 1.59757 53.6989 1.87687 53.2786C3.47187 50.8767 5.57476 48.687 5.70195 45.5554Z" fill="#83A8B3"/>
<path d="M8.91431 50.0844C8.73126 50.5433 8.05493 51.9415 8.34626 52.7322C8.95899 51.114 10.2051 48.9148 9.10423 47.6283C9.28813 48.8856 8.51212 49.1829 8.34626 50.0844C8.67196 50.1609 8.83095 49.806 8.91431 50.0844ZM7.40095 48.0107C7.3322 48.5161 6.10931 48.8469 6.64642 49.3333C6.66704 49.103 6.70485 48.8847 7.02368 48.9543C6.43587 50.1936 5.22415 51.8135 5.13306 52.9229C5.67704 51.1956 7.39751 49.6461 7.40095 48.0107ZM18.1758 34.7781C18.816 34.7678 18.9853 35.1184 19.311 34.589C19.0274 34.5581 18.6149 34.6569 18.5565 34.4C19.8224 34.3914 20.8588 34.6165 21.5781 35.1579C21.6314 34.8841 21.6698 34.6075 21.6932 34.3295C21.7577 33.4916 21.6004 32.8969 21.2008 31.9456C20.7522 32.0607 19.8335 31.7084 19.69 32.1312L19.6892 32.1329C20.014 32.1235 20.173 32.2807 20.2563 32.5119C17.8999 33.1762 15.8159 34.1155 14.9643 36.2906L14.9634 36.2923C16.6281 37.0941 16.891 34.974 18.1758 34.7781Z" fill="#25333A"/>
</g>
<defs>
<clipPath id="clip0_268_457">
<rect width="55" height="55" rx="27.5" fill="white"/>
</clipPath>
</defs>
</svg>
