<svg width="35" height="35" viewBox="0 0 35 35" fill="none" xmlns="http://www.w3.org/2000/svg">
<path d="M9.09273 9.41058C7.23342 11.3404 6.09512 13.8514 5.86919 16.5217C5.64325 19.1919 6.34344 21.8585 7.85206 24.0733C9.36069 26.288 11.5858 27.9159 14.1533 28.6834C16.7208 29.4508 19.4743 29.3109 21.9509 28.2873C22.1186 27.1935 21.7511 26.1435 21.6009 25.776C21.2654 24.9593 20.16 23.5637 18.3152 21.6285C17.8223 21.1108 17.8544 20.7141 18.0309 19.5329L18.0498 19.4002C18.1694 18.5923 18.3706 18.1139 21.0904 17.6823C22.4729 17.4635 22.8361 18.0148 23.3392 18.7804L23.5084 19.0312C23.9867 19.7312 24.3411 19.8916 24.8763 20.1337C25.1169 20.2431 25.4159 20.3816 25.8169 20.6077C26.7677 21.1516 26.7677 21.7656 26.7677 23.1102V23.2633C26.7677 23.8335 26.7123 24.3352 26.6248 24.7712C27.7439 23.3667 28.5237 21.7229 28.9036 19.9677C29.2835 18.2126 29.2531 16.3934 28.815 14.6519C28.3768 12.9104 27.5426 11.2934 26.3773 9.92704C25.2121 8.56063 23.7472 7.48159 22.0967 6.77392C21.2902 7.31788 20.1834 8.08933 19.7969 8.61871C19.6 8.8885 19.32 10.2695 18.4115 10.3833C18.1752 10.4125 17.8559 10.392 17.5175 10.3702C16.6104 10.3118 15.3709 10.2316 14.9742 11.3093C14.7219 11.9918 14.6781 13.8468 15.4934 14.8093C15.6246 14.9625 15.6494 15.2468 15.5604 15.5662C15.4438 15.9848 15.209 16.24 15.1346 16.2925C14.9946 16.2108 14.7146 15.8856 14.5236 15.6654C14.0671 15.1316 13.4954 14.4695 12.7575 14.2654C12.4892 14.191 12.1946 14.1298 11.9073 14.0685C11.1067 13.9008 10.2011 13.7098 9.9896 13.2606C9.83502 12.931 9.83648 12.4775 9.83648 11.9991C9.83648 11.391 9.83648 10.7041 9.53898 10.0377C9.43555 9.79983 9.28355 9.58623 9.09273 9.41058ZM17.5 32.0833C9.44565 32.0833 2.91669 25.5543 2.91669 17.5C2.91669 9.44558 9.44565 2.91663 17.5 2.91663C25.5544 2.91663 32.0834 9.44558 32.0834 17.5C32.0834 25.5543 25.5544 32.0833 17.5 32.0833Z" fill="black"/>
</svg>
