<svg width="35" height="35" viewBox="0 0 35 35" fill="none" xmlns="http://www.w3.org/2000/svg">
<path d="M17.5 2.91663C25.5544 2.91663 32.0834 9.44558 32.0834 17.5C32.0834 25.5543 25.5544 32.0833 17.5 32.0833C9.44565 32.0833 2.91669 25.5543 2.91669 17.5C2.91669 9.44558 9.44565 2.91663 17.5 2.91663ZM23.3392 18.7804C22.8361 18.0148 22.4729 17.4635 21.0904 17.6823C18.48 18.0964 18.1898 18.5529 18.0659 19.3054L18.0309 19.5329L17.9944 19.775C17.8529 20.771 17.8573 21.1473 18.3152 21.627C20.16 23.5637 21.2654 24.9593 21.6009 25.776C21.7642 26.1741 22.1842 27.3802 21.8954 28.5731C23.6656 27.868 25.2412 26.7494 26.4906 25.3108C26.6511 24.7654 26.7677 24.0858 26.7677 23.2633V23.1102C26.7677 21.7656 26.7677 21.1516 25.8169 20.6077C25.5113 20.4344 25.1974 20.2762 24.8763 20.1337C24.3411 19.8902 23.9867 19.7312 23.5084 19.0312C23.4506 18.9485 23.3942 18.8649 23.3392 18.7804ZM17.5 5.58975C14.1211 5.58975 11.0688 6.9985 8.90169 9.25892C9.15981 9.43829 9.3844 9.69058 9.53898 10.0377C9.83648 10.7041 9.83648 11.391 9.83648 11.9991C9.83648 12.4775 9.83648 12.9325 9.9896 13.2606C10.1996 13.7098 11.1067 13.9023 11.9073 14.0685C12.1946 14.1298 12.4892 14.191 12.7575 14.2654C13.4954 14.4695 14.0671 15.1331 14.5236 15.6654C14.7131 15.8856 14.9946 16.2108 15.1361 16.2925C15.209 16.24 15.4438 15.9848 15.559 15.5662C15.6494 15.2454 15.6231 14.9625 15.4934 14.8079C14.6767 13.8454 14.7219 11.9933 14.9742 11.3093C15.3709 10.2316 16.6104 10.3118 17.5175 10.3702C17.8559 10.392 18.1738 10.4139 18.4129 10.3833C19.32 10.2695 19.6 8.8885 19.7969 8.61871C20.2227 8.03538 21.5265 7.156 22.3344 6.6135C20.8126 5.93682 19.1655 5.58801 17.5 5.58975Z" fill="black"/>
</svg>
