<svg width="42" height="42" viewBox="0 0 42 42" fill="none" xmlns="http://www.w3.org/2000/svg">
<g clip-path="url(#clip0_453_957)">
<path d="M21 42C32.598 42 42 32.598 42 21C42 9.40202 32.598 0 21 0C9.40202 0 0 9.40202 0 21C0 32.598 9.40202 42 21 42Z" fill="#F1B32B"/>
<path d="M20.6719 5.25C12.1538 5.25 5.25 12.1538 5.25 20.6719C5.25 29.19 12.1538 36.0938 20.6719 36.0938C29.19 36.0938 36.0938 29.19 36.0938 20.6719C36.0938 16.5817 34.4689 12.6591 31.5768 9.76696C28.6846 6.8748 24.762 5.25 20.6719 5.25ZM20.6719 32.2481C17.6017 32.2481 14.6572 31.0285 12.4862 28.8575C10.3153 26.6866 9.09562 23.7421 9.09562 20.6719C9.09562 17.6017 10.3153 14.6572 12.4862 12.4862C14.6572 10.3153 17.6017 9.09562 20.6719 9.09562C23.7421 9.09562 26.6866 10.3153 28.8575 12.4862C31.0285 14.6572 32.2481 17.6017 32.2481 20.6719C32.2481 23.7421 31.0285 26.6866 28.8575 28.8575C26.6866 31.0285 23.7421 32.2481 20.6719 32.2481ZM16.8262 20.685L20.685 26.46L24.5175 20.685L20.685 14.8969L16.8262 20.685Z" fill="white"/>
</g>
<defs>
<clipPath id="clip0_453_957">
<rect width="42" height="42" fill="white"/>
</clipPath>
</defs>
</svg>
