<svg width="36" height="35" viewBox="0 0 36 35" fill="none" xmlns="http://www.w3.org/2000/svg">
<path d="M24.8359 4.92188C22.0893 4.92188 19.6516 6.00605 18 7.86953C16.3484 6.00605 13.9107 4.92188 11.1641 4.92188C8.77179 4.92477 6.47832 5.87638 4.78673 7.56798C3.09513 9.25957 2.14352 11.553 2.14062 13.9453C2.14063 23.8355 16.6068 31.7379 17.2221 32.0701C17.4612 32.1989 17.7285 32.2663 18 32.2663C18.2715 32.2663 18.5388 32.1989 18.7779 32.0701C19.3932 31.7379 33.8594 23.8355 33.8594 13.9453C33.8565 11.553 32.9049 9.25957 31.2133 7.56798C29.5217 5.87638 27.2282 4.92477 24.8359 4.92188ZM24.0854 24.3852C22.1812 26.0009 20.1457 27.4552 18 28.7328C15.8543 27.4552 13.8188 26.0009 11.9146 24.3852C8.95195 21.8436 5.42188 17.9676 5.42188 13.9453C5.42188 12.4224 6.02685 10.9618 7.10372 9.88497C8.18059 8.8081 9.64114 8.20312 11.1641 8.20312C13.5977 8.20312 15.6348 9.48828 16.4811 11.5582C16.6042 11.86 16.8145 12.1182 17.085 12.2999C17.3555 12.4817 17.6741 12.5788 18 12.5788C18.3259 12.5788 18.6445 12.4817 18.915 12.2999C19.1855 12.1182 19.3958 11.86 19.5189 11.5582C20.3652 9.48828 22.4023 8.20312 24.8359 8.20312C26.3589 8.20312 27.8194 8.8081 28.8963 9.88497C29.9731 10.9618 30.5781 12.4224 30.5781 13.9453C30.5781 17.9676 27.048 21.8436 24.0854 24.3852Z" fill="black"/>
</svg>
