<svg width="30" height="30" viewBox="0 0 30 30" fill="none" xmlns="http://www.w3.org/2000/svg">
<path d="M15 12.5C14.6685 12.5 14.3505 12.6317 14.1161 12.8661C13.8817 13.1005 13.75 13.4185 13.75 13.75V21.25C13.75 21.5815 13.8817 21.8995 14.1161 22.1339C14.3505 22.3683 14.6685 22.5 15 22.5C15.3315 22.5 15.6495 22.3683 15.8839 22.1339C16.1183 21.8995 16.25 21.5815 16.25 21.25V13.75C16.25 13.4185 16.1183 13.1005 15.8839 12.8661C15.6495 12.6317 15.3315 12.5 15 12.5ZM15 7.5C14.691 7.5 14.3889 7.59164 14.1319 7.76333C13.875 7.93502 13.6747 8.17905 13.5564 8.46456C13.4382 8.75007 13.4072 9.06423 13.4675 9.36733C13.5278 9.67042 13.6766 9.94883 13.8951 10.1674C14.1137 10.3859 14.3921 10.5347 14.6952 10.595C14.9983 10.6553 15.3124 10.6243 15.5979 10.5061C15.8835 10.3878 16.1275 10.1875 16.2992 9.93058C16.4709 9.67363 16.5625 9.37153 16.5625 9.0625C16.5625 8.6481 16.3979 8.25067 16.1049 7.95765C15.8118 7.66462 15.4144 7.5 15 7.5Z" fill="black"/>
</svg>
