<svg width="35" height="35" viewBox="0 0 35 35" fill="none" xmlns="http://www.w3.org/2000/svg">
<path d="M21.875 30.625L13.125 27.5625L6.34375 30.1875C5.85764 30.3819 5.40799 30.3275 4.99479 30.0242C4.5816 29.7208 4.375 29.3135 4.375 28.8021V8.38542C4.375 8.06944 4.46639 7.78993 4.64917 7.54688C4.83194 7.30382 5.08083 7.12153 5.39583 7L13.125 4.375L21.875 7.4375L28.6563 4.8125C29.1424 4.61806 29.592 4.67299 30.0052 4.97729C30.4184 5.2816 30.625 5.68847 30.625 6.19792V26.6146C30.625 26.9306 30.5341 27.2101 30.3523 27.4531C30.1705 27.6962 29.9211 27.8785 29.6042 28L21.875 30.625ZM20.4167 27.0521V9.98958L14.5833 7.94792V25.0104L20.4167 27.0521Z" fill="black"/>
</svg>
