<svg width="36" height="35" viewBox="0 0 36 35" fill="none" xmlns="http://www.w3.org/2000/svg">
<path d="M18 20.4167C21.2171 20.4167 23.8333 17.8004 23.8333 14.5833C23.8333 11.3662 21.2171 8.75 18 8.75C14.7829 8.75 12.1667 11.3662 12.1667 14.5833C12.1667 17.8004 14.7829 20.4167 18 20.4167ZM18 11.6667C19.6085 11.6667 20.9167 12.9748 20.9167 14.5833C20.9167 16.1919 19.6085 17.5 18 17.5C16.3915 17.5 15.0833 16.1919 15.0833 14.5833C15.0833 12.9748 16.3915 11.6667 18 11.6667Z" fill="black"/>
<path d="M17.1542 31.8121C17.401 31.9883 17.6967 32.0831 18 32.0831C18.3033 32.0831 18.599 31.9883 18.8458 31.8121C19.2892 31.4985 29.709 23.975 29.6667 14.5833C29.6667 8.15062 24.4327 2.91666 18 2.91666C11.5673 2.91666 6.33333 8.15061 6.33333 14.576C6.29104 23.975 16.7108 31.4985 17.1542 31.8121ZM18 5.83332C22.8256 5.83332 26.75 9.7577 26.75 14.5906C26.7806 21.0627 20.3508 26.8742 18 28.7802C15.6506 26.8727 9.21938 21.0598 9.25 14.5833C9.25 9.7577 13.1744 5.83332 18 5.83332Z" fill="black"/>
</svg>
