<svg width="36" height="35" viewBox="0 0 36 35" fill="none" xmlns="http://www.w3.org/2000/svg">
<path d="M6.33333 26.25C6.33333 24.7029 6.94791 23.2192 8.04187 22.1252C9.13583 21.0313 10.6196 20.4167 12.1667 20.4167H23.8333C25.3804 20.4167 26.8642 21.0313 27.9581 22.1252C29.0521 23.2192 29.6667 24.7029 29.6667 26.25C29.6667 27.0236 29.3594 27.7654 28.8124 28.3124C28.2654 28.8594 27.5235 29.1667 26.75 29.1667H9.24999C8.47645 29.1667 7.73458 28.8594 7.1876 28.3124C6.64062 27.7654 6.33333 27.0236 6.33333 26.25Z" stroke="black" stroke-width="4.16667" stroke-linejoin="round"/>
<path d="M18 14.5833C20.4162 14.5833 22.375 12.6246 22.375 10.2083C22.375 7.7921 20.4162 5.83334 18 5.83334C15.5838 5.83334 13.625 7.7921 13.625 10.2083C13.625 12.6246 15.5838 14.5833 18 14.5833Z" stroke="black" stroke-width="4.16667"/>
</svg>
