<svg width="35" height="35" viewBox="0 0 35 35" fill="none" xmlns="http://www.w3.org/2000/svg">
<path fill-rule="evenodd" clip-rule="evenodd" d="M11.6667 10.2083C11.6667 8.66124 12.2812 7.17751 13.3752 6.08354C14.4692 4.98958 15.9529 4.375 17.5 4.375C19.0471 4.375 20.5308 4.98958 21.6248 6.08354C22.7188 7.17751 23.3333 8.66124 23.3333 10.2083C23.3333 11.7554 22.7188 13.2392 21.6248 14.3331C20.5308 15.4271 19.0471 16.0417 17.5 16.0417C15.9529 16.0417 14.4692 15.4271 13.3752 14.3331C12.2812 13.2392 11.6667 11.7554 11.6667 10.2083ZM11.6667 18.9583C9.7328 18.9583 7.87813 19.7266 6.51068 21.094C5.14323 22.4615 4.375 24.3161 4.375 26.25C4.375 27.4103 4.83594 28.5231 5.65641 29.3436C6.47688 30.1641 7.58968 30.625 8.75 30.625H26.25C27.4103 30.625 28.5231 30.1641 29.3436 29.3436C30.1641 28.5231 30.625 27.4103 30.625 26.25C30.625 24.3161 29.8568 22.4615 28.4893 21.094C27.1219 19.7266 25.2672 18.9583 23.3333 18.9583H11.6667Z" fill="black"/>
</svg>
