<svg width="35" height="35" viewBox="0 0 35 35" fill="none" xmlns="http://www.w3.org/2000/svg">
<path d="M17.5 32.0833C25.5543 32.0833 32.0833 25.5543 32.0833 17.5C32.0833 9.44558 25.5543 2.91663 17.5 2.91663C9.44558 2.91663 2.91663 9.44558 2.91663 17.5C2.91663 25.5543 9.44558 32.0833 17.5 32.0833Z" stroke="black" stroke-width="2.91667"/>
<path d="M17.5 32.0833C25.5543 32.0833 32.0833 25.5543 32.0833 17.5C32.0833 9.44558 25.5543 2.91663 17.5 2.91663C9.44558 2.91663 2.91663 9.44558 2.91663 17.5C2.91663 25.5543 9.44558 32.0833 17.5 32.0833Z" stroke="black" stroke-width="2.91667" stroke-linejoin="round"/>
<path d="M24.0625 19.6875L17.5 13.125L10.9375 19.6875" stroke="black" stroke-width="2.91667" stroke-linecap="round" stroke-linejoin="round"/>
</svg>
